<svg width="70" height="33" viewBox="0 0 70 33" fill="none" xmlns="http://www.w3.org/2000/svg">
<g clip-path="url(#clip0_1_101)">
<path d="M0 0.405766C0.482431 0.319286 0.971898 0.277131 1.46216 0.279838C2.05952 0.217637 2.65988 0.366291 3.15742 0.699597C3.33031 0.827619 3.46808 0.996487 3.55815 1.19079C3.64822 1.38509 3.68772 1.59865 3.67306 1.81196C3.66243 2.11598 3.55587 2.40907 3.36835 2.65C3.18084 2.89094 2.9218 3.06761 2.62765 3.15518C2.9891 3.22792 3.31398 3.42238 3.54705 3.70551C3.78012 3.98865 3.90701 4.34298 3.90616 4.70829C3.91042 4.93891 3.86542 5.16781 3.77413 5.38001C3.68283 5.5922 3.54729 5.78289 3.37639 5.93958C2.76409 6.37992 2.01063 6.58389 1.25732 6.51325C0.836846 6.51924 0.416526 6.49351 0 6.43629L0 0.405766ZM0.798184 2.91732H1.50454C2.34511 2.91732 2.84662 2.48357 2.84662 1.88891C2.84662 1.18931 2.29566 0.888488 1.48335 0.888488C1.24656 0.882185 1.00976 0.900947 0.776993 0.944456L0.798184 2.91732ZM0.798184 5.85563C1.03224 5.88676 1.26852 5.89846 1.50454 5.89061C2.33098 5.89061 3.09384 5.59678 3.09384 4.70129C3.09384 3.80581 2.33098 3.49799 1.46216 3.49799H0.798184V5.85563Z" fill="#333333"/>
<path d="M4.9445 3.42803C4.9445 2.91033 4.9445 2.46258 4.9445 2.02883H5.65086V2.91732H5.68618C5.76224 2.64929 5.92222 2.41207 6.14309 2.23983C6.36396 2.0676 6.63432 1.96922 6.91524 1.95887C6.99037 1.95094 7.06614 1.95094 7.14127 1.95887V2.73543C7.04966 2.72654 6.9574 2.72654 6.86579 2.73543C6.59524 2.74852 6.33816 2.85624 6.14027 3.03942C5.94238 3.22261 5.81651 3.46939 5.78506 3.73585C5.77328 3.86151 5.77328 3.98798 5.78506 4.11363V6.45728H4.9445V3.42803Z" fill="#333333"/>
<path d="M11.8809 4.19758C11.9079 4.49867 11.8703 4.80199 11.7707 5.08772C11.6712 5.37345 11.5119 5.63514 11.3032 5.8557C11.0945 6.07625 10.8412 6.25069 10.5597 6.36762C10.2783 6.48455 9.97513 6.54132 9.67003 6.53424C9.37754 6.53509 9.08803 6.47596 8.81974 6.36057C8.55144 6.24518 8.31018 6.07603 8.11112 5.86376C7.91207 5.6515 7.75954 5.40072 7.66313 5.12721C7.56672 4.8537 7.52853 4.56338 7.55096 4.27454C7.52737 3.97692 7.56669 3.6777 7.6664 3.39597C7.76611 3.11424 7.92402 2.8562 8.13007 2.6383C8.33611 2.42041 8.58575 2.24745 8.86307 2.13046C9.14038 2.01348 9.43927 1.95504 9.74067 1.95887C10.033 1.95533 10.323 2.01175 10.5922 2.12457C10.8615 2.2374 11.1043 2.4042 11.3053 2.61447C11.5063 2.82474 11.6612 3.07394 11.7603 3.34639C11.8594 3.61884 11.9004 3.90865 11.8809 4.19758ZM8.34914 4.24655C8.34914 5.212 8.90716 5.93958 9.69828 5.93958C10.4894 5.93958 11.0474 5.23998 11.0474 4.22557C11.0474 3.48399 10.6731 2.53254 9.71948 2.53254C8.76589 2.53254 8.35621 3.42803 8.35621 4.26754L8.34914 4.24655Z" fill="#333333"/>
<path d="M16.6206 5.25397C16.6206 5.70871 16.6206 6.11447 16.6206 6.45727H15.9142L15.8648 5.75768C15.7134 6.00465 15.4995 6.20817 15.2443 6.34806C14.9891 6.48796 14.7014 6.55937 14.4097 6.55522C13.7033 6.55522 12.8769 6.17744 12.8769 4.63133V2.05681H13.6821V4.49141C13.6821 5.33092 13.9364 5.8906 14.671 5.8906C14.8983 5.8897 15.1204 5.823 15.3099 5.6987C15.4994 5.5744 15.6481 5.39792 15.7376 5.191C15.7904 5.06218 15.8168 4.92426 15.8153 4.78524V2.05681H16.6206V5.25397Z" fill="#333333"/>
<path d="M21.7911 2.05682C21.7911 2.37164 21.7558 2.75642 21.7558 3.26713V5.82066C21.8018 6.18092 21.7688 6.54678 21.6591 6.89328C21.5494 7.23978 21.3656 7.55877 21.1201 7.8285C20.6676 8.20099 20.09 8.39085 19.5025 8.36019C18.9861 8.37489 18.4755 8.24907 18.0262 7.9964L18.224 7.38775C18.6201 7.61735 19.0719 7.73586 19.5308 7.73056C20.3572 7.73056 20.9435 7.3038 20.9435 6.19144V5.70172C20.7916 5.93171 20.5808 6.11764 20.3326 6.24055C20.0844 6.36346 19.8077 6.41894 19.5308 6.40132C19.2674 6.38714 19.0096 6.32112 18.7723 6.20713C18.535 6.09313 18.3231 5.93344 18.1488 5.73739C17.9745 5.54134 17.8414 5.31286 17.7573 5.0653C17.6732 4.81773 17.6398 4.55605 17.6589 4.29553C17.6589 2.7984 18.6196 1.95888 19.6438 1.95888C19.9285 1.93704 20.2135 1.99746 20.4643 2.13281C20.715 2.26815 20.9207 2.47262 21.0565 2.72144L21.0918 2.02184L21.7911 2.05682ZM20.9576 3.79182C20.96 3.66877 20.9433 3.54608 20.9082 3.42803C20.8388 3.18414 20.6908 2.96941 20.4868 2.81657C20.2827 2.66374 20.0338 2.58119 19.778 2.58152C19.0081 2.58152 18.4571 3.23215 18.4571 4.24656C18.4571 5.11406 18.8951 5.82765 19.7709 5.82765C20.0207 5.82675 20.2637 5.74686 20.4645 5.59963C20.6652 5.45239 20.8132 5.24551 20.887 5.00912C20.9351 4.87194 20.959 4.72758 20.9576 4.58237V3.79182Z" fill="#333333"/>
<path d="M23.0908 0H23.9031V2.74942C24.0419 2.5129 24.2419 2.3173 24.4823 2.18274C24.734 2.03956 25.0185 1.96249 25.3088 1.95887C25.9092 1.95887 26.8628 2.32266 26.8628 3.84079V6.45728H26.0716V3.93174C26.0716 3.23214 25.8032 2.61649 25.0404 2.61649C24.7976 2.62059 24.5623 2.70061 24.3682 2.84511C24.1741 2.98961 24.0311 3.19119 23.9596 3.42103C23.9132 3.54135 23.8939 3.67031 23.9031 3.79881V6.45728H23.0908V0Z" fill="#333333"/>
<path d="M29.1302 0.790543V2.05681H30.2815V2.66546H29.1302V5.0371C29.1302 5.58278 29.2856 5.89061 29.7306 5.89061C29.8898 5.89414 30.0488 5.87768 30.2038 5.84163L30.2392 6.43629C30.0133 6.51892 29.7734 6.55695 29.5328 6.54823C29.3721 6.55763 29.2112 6.53248 29.0613 6.47452C28.9113 6.41655 28.7758 6.32714 28.664 6.21242C28.4177 5.88261 28.3067 5.47269 28.3532 5.06508V2.66546H27.6468V2.05681H28.3532V1.00042L29.1302 0.790543Z" fill="#333333"/>
<path d="M34.11 0.790543V2.05681H35.2684V2.66546H34.11V5.0371C34.11 5.58278 34.2654 5.89061 34.7175 5.89061C34.8744 5.89471 35.0311 5.87824 35.1837 5.84163L35.226 6.43629C35.0001 6.5184 34.7602 6.55641 34.5197 6.54823C34.359 6.55763 34.1981 6.53248 34.0482 6.47452C33.8982 6.41655 33.7627 6.32714 33.6509 6.21242C33.4046 5.88261 33.2936 5.47269 33.3401 5.06508V2.66546H32.6337V2.05681H33.3401V1.00042L34.11 0.790543Z" fill="#333333"/>
<path d="M40.1423 4.19758C40.1724 4.50032 40.1372 4.80595 40.0391 5.09421C39.941 5.38248 39.7821 5.64682 39.5731 5.86972C39.3641 6.09262 39.1096 6.269 38.8266 6.38717C38.5436 6.50535 38.2384 6.56263 37.9314 6.55522C37.6389 6.55607 37.3494 6.49694 37.0811 6.38155C36.8128 6.26616 36.5715 6.09701 36.3725 5.88474C36.1734 5.67248 36.0209 5.4217 35.9245 5.14819C35.8281 4.87468 35.7899 4.58436 35.8123 4.29552C35.7855 3.99563 35.8227 3.69352 35.9214 3.40878C36.0202 3.12404 36.1782 2.86304 36.3854 2.64271C36.5925 2.42238 36.8441 2.24764 37.1238 2.12983C37.4035 2.01202 37.7052 1.95377 38.0091 1.95886C38.3008 1.95629 38.59 2.01343 38.8584 2.12669C39.1269 2.23994 39.3688 2.40689 39.5691 2.61705C39.7693 2.82722 39.9236 3.07608 40.0222 3.34805C40.1209 3.62002 40.1617 3.90924 40.1423 4.19758ZM36.6105 4.24655C36.6105 5.21199 37.1756 5.93957 37.9596 5.93957C38.7437 5.93957 39.3158 5.23998 39.3158 4.22556C39.3158 3.48399 38.9344 2.53253 37.9808 2.53253C37.0272 2.53253 36.6176 3.42802 36.6176 4.26754L36.6105 4.24655Z" fill="#333333"/>
<path d="M43.4057 2.05681L44.3804 4.65931C44.4793 4.94614 44.5923 5.29594 44.663 5.55479C44.7407 5.29594 44.8325 4.96014 44.9455 4.63832L45.8285 2.05681H46.6831L45.4894 5.191C44.9102 6.70213 44.5146 7.47869 43.9637 7.94742C43.6868 8.20459 43.3453 8.38339 42.9748 8.46512L42.7699 7.76552C43.0292 7.68243 43.2693 7.54927 43.4763 7.37375C43.7814 7.13913 44.0239 6.83409 44.1826 6.48526C44.2181 6.42733 44.2421 6.36321 44.2533 6.29637C44.2456 6.22392 44.2265 6.15311 44.1968 6.08649L42.5227 2.05681H43.4057Z" fill="#333333"/>
<path d="M51.3663 4.19758C51.3932 4.49867 51.3557 4.80199 51.2561 5.08772C51.1566 5.37345 50.9972 5.63514 50.7886 5.8557C50.5799 6.07625 50.3265 6.25069 50.0451 6.36762C49.7637 6.48455 49.4605 6.54132 49.1554 6.53424C48.8629 6.53509 48.5734 6.47596 48.3051 6.36057C48.0368 6.24518 47.7956 6.07603 47.5965 5.86376C47.3974 5.6515 47.2449 5.40072 47.1485 5.12721C47.0521 4.8537 47.0139 4.56338 47.0363 4.27454C47.0127 3.97692 47.0521 3.6777 47.1518 3.39597C47.2515 3.11424 47.4094 2.8562 47.6154 2.6383C47.8215 2.42041 48.0711 2.24745 48.3484 2.13046C48.6258 2.01348 48.9246 1.95504 49.226 1.95887C49.5184 1.95533 49.8083 2.01175 50.0776 2.12457C50.3469 2.2374 50.5897 2.4042 50.7907 2.61447C50.9917 2.82474 51.1466 3.07394 51.2457 3.34639C51.3447 3.61884 51.3858 3.90865 51.3663 4.19758ZM47.8345 4.24655C47.8345 5.212 48.3925 5.93958 49.1837 5.93958C49.9748 5.93958 50.5328 5.23998 50.5328 4.22557C50.5328 3.48399 50.1584 2.53254 49.2049 2.53254C48.2513 2.53254 47.8416 3.42803 47.8416 4.26754L47.8345 4.24655Z" fill="#333333"/>
<path d="M56.1059 5.25397C56.1059 5.70871 56.1059 6.11447 56.1059 6.45727H55.3996L55.3501 5.75768C55.1991 6.01118 54.9829 6.22049 54.7235 6.36428C54.4642 6.50807 54.171 6.58119 53.8739 6.57621C53.1675 6.57621 52.3411 6.19842 52.3411 4.65231V2.05681H53.1534V4.49141C53.1534 5.33092 53.4077 5.8906 54.1423 5.8906C54.3696 5.8897 54.5916 5.823 54.7812 5.6987C54.9707 5.5744 55.1193 5.39792 55.2089 5.191C55.2592 5.0617 55.2833 4.92379 55.2795 4.78524V2.05681H56.0918L56.1059 5.25397Z" fill="#333333"/>
<path d="M59.334 6.45728C59.334 6.15646 59.334 5.70871 59.334 5.32394V0H60.1322V2.79839C60.2867 2.52122 60.5192 2.29438 60.8012 2.14538C61.0833 1.99637 61.403 1.93159 61.7215 1.95887C62.8234 1.95887 63.6075 2.86835 63.5722 4.19758C63.5722 5.77168 62.5691 6.54823 61.5732 6.54823C61.2722 6.56487 60.9727 6.49601 60.7099 6.34976C60.4471 6.20351 60.232 5.98596 60.0898 5.72271V6.4223L59.334 6.45728ZM60.1675 4.6943C60.1719 4.79066 60.1837 4.88655 60.2028 4.98113C60.272 5.2552 60.4337 5.49761 60.6611 5.66813C60.8885 5.83865 61.168 5.92702 61.4531 5.91859C62.3007 5.91859 62.8022 5.219 62.8022 4.23256C62.8022 3.34407 62.3431 2.59551 61.4813 2.59551C61.1957 2.60032 60.9199 2.6992 60.6973 2.87656C60.4747 3.05392 60.3182 3.29965 60.2523 3.57494C60.2227 3.68221 60.2061 3.79259 60.2028 3.90375L60.1675 4.6943Z" fill="#333333"/>
<path d="M64.8436 2.05682L65.8184 4.65932C65.9173 4.94616 66.0303 5.29596 66.1009 5.55481C66.1857 5.29596 66.2775 4.96015 66.3835 4.63834L67.2664 2.05682H68.1211L66.9273 5.19102C66.3552 6.70215 65.9596 7.4787 65.4087 7.94743C65.1298 8.20571 64.7857 8.38458 64.4127 8.46513L64.2149 7.76554C64.4736 7.68112 64.7135 7.5481 64.9213 7.37376C65.2245 7.13718 65.4666 6.83266 65.6277 6.48527C65.6586 6.42596 65.6801 6.36223 65.6912 6.29638C65.6835 6.22394 65.6645 6.15312 65.6347 6.0865L63.996 2.02884L64.8436 2.05682Z" fill="#333333"/>
<path d="M68.9052 2.79839C68.9003 2.72417 68.911 2.64975 68.9365 2.57982C68.9621 2.50989 69.0021 2.44596 69.0538 2.39207C69.1056 2.33818 69.168 2.29549 69.2373 2.26669C69.3065 2.23788 69.381 2.22359 69.4561 2.22472C69.5303 2.22556 69.6036 2.24124 69.6715 2.27082C69.7394 2.30039 69.8006 2.34325 69.8514 2.39683C69.9022 2.4504 69.9415 2.51358 69.9671 2.58259C69.9926 2.65159 70.0038 2.72499 70 2.79839C70.0088 2.87476 70.0012 2.95211 69.9777 3.02536C69.9541 3.09862 69.9153 3.16613 69.8636 3.22347C69.8119 3.28081 69.7486 3.32669 69.6778 3.35811C69.6069 3.38952 69.5302 3.40576 69.4526 3.40576C69.375 3.40576 69.2982 3.38952 69.2274 3.35811C69.1566 3.32669 69.0932 3.28081 69.0416 3.22347C68.9899 3.16613 68.951 3.09862 68.9275 3.02536C68.904 2.95211 68.8964 2.87476 68.9052 2.79839ZM68.9052 6.00954C68.9003 5.93532 68.911 5.8609 68.9365 5.79097C68.9621 5.72104 69.0021 5.65712 69.0538 5.60322C69.1056 5.54933 69.168 5.50664 69.2373 5.47784C69.3065 5.44903 69.381 5.43474 69.4561 5.43587C69.5303 5.43671 69.6036 5.45239 69.6715 5.48197C69.7394 5.51154 69.8006 5.5544 69.8514 5.60798C69.9022 5.66155 69.9415 5.72474 69.9671 5.79374C69.9926 5.86274 70.0038 5.93614 70 6.00954C70.0088 6.08591 70.0012 6.16326 69.9777 6.23651C69.9541 6.30977 69.9153 6.37728 69.8636 6.43462C69.8119 6.49196 69.7486 6.53784 69.6778 6.56926C69.6069 6.60067 69.5302 6.61691 69.4526 6.61691C69.375 6.61691 69.2982 6.60067 69.2274 6.56926C69.1566 6.53784 69.0932 6.49196 69.0416 6.43462C68.9899 6.37728 68.951 6.30977 68.9275 6.23651C68.904 6.16326 68.8964 6.08591 68.9052 6.00954Z" fill="#333333"/>
<path d="M0.233098 21.3377C0.858396 21.4181 1.48856 21.4555 2.11907 21.4497C3.63068 21.4497 4.67608 21.1768 5.31181 20.5891C5.56385 20.3535 5.76274 20.0678 5.89543 19.7507C6.02812 19.4336 6.09161 19.0923 6.08174 18.7492C6.07875 18.2075 5.8864 17.6836 5.53742 17.2665C5.18843 16.8495 4.70435 16.565 4.16751 16.4615V16.4195C4.60983 16.2901 4.99958 16.0256 5.28117 15.6638C5.56275 15.302 5.7218 14.8613 5.73562 14.4047C5.74642 14.0919 5.68001 13.7812 5.54215 13.4996C5.40428 13.218 5.19914 12.974 4.9445 12.7886C4.21478 12.2602 3.31635 12.0116 2.41574 12.089C1.68078 12.0829 0.947093 12.1509 0.226034 12.2919V21.3377H0.233098ZM1.41271 13.1105C1.76227 13.0487 2.11734 13.0229 2.47225 13.0335C3.68012 13.0335 4.49243 13.4672 4.49243 14.5306C4.51362 15.3911 3.77195 16.0907 2.52169 16.0907H1.41271V13.1105ZM1.41271 16.9652H2.40161C3.70838 16.9652 4.79616 17.4969 4.79616 18.7352C4.79616 19.9735 3.67306 20.5262 2.43693 20.5262C2.09456 20.5352 1.75201 20.5165 1.41271 20.4702V16.9652Z" fill="#006A8E"/>
<path d="M7.66397 21.3657H8.87185V11.6973H7.66397V21.3657Z" fill="#006A8E"/>
<path d="M13.6327 21.5196C15.2149 21.5196 16.9384 20.4562 16.9384 18.0216C16.9384 16.0208 15.6458 14.6426 13.7316 14.6426C11.8174 14.6426 10.4329 15.9368 10.4329 18.1405C10.3975 18.5755 10.4541 19.013 10.5989 19.4251C10.7437 19.8372 10.9737 20.2149 11.2741 20.5342C11.5744 20.8534 11.9387 21.1071 12.3436 21.2792C12.7484 21.4513 13.1851 21.5379 13.6256 21.5336L13.6327 21.5196ZM13.6327 20.6171C12.4672 20.6171 11.6408 19.5258 11.6408 18.0846C11.6408 16.8323 12.2624 15.5241 13.6751 15.5241C15.0878 15.5241 15.6741 16.9233 15.6741 18.0426C15.6741 19.5397 14.8052 20.6171 13.6468 20.6171H13.6327Z" fill="#006A8E"/>
<path d="M22.999 20.2253C22.5338 20.4368 22.0274 20.5442 21.5156 20.5402C21.1953 20.5444 20.8776 20.4819 20.5831 20.3568C20.2887 20.2318 20.024 20.0469 19.8063 19.8141C19.5886 19.5813 19.4226 19.3058 19.3192 19.0055C19.2158 18.7051 19.1771 18.3866 19.2059 18.0706C19.177 17.75 19.2167 17.427 19.3224 17.1226C19.4282 16.8183 19.5976 16.5394 19.8196 16.3044C20.0416 16.0693 20.3112 15.8833 20.6108 15.7585C20.9103 15.6336 21.2331 15.5728 21.558 15.58C22.0472 15.5671 22.5322 15.6727 22.9707 15.8878L23.2462 14.9784C22.7228 14.7351 22.1503 14.6131 21.5721 14.6216C21.0992 14.5958 20.6261 14.6683 20.1832 14.8343C19.7402 15.0003 19.3372 15.2562 18.9999 15.5856C18.6627 15.915 18.3988 16.3106 18.225 16.747C18.0512 17.1833 17.9715 17.6509 17.9909 18.1196C17.9572 18.5634 18.0193 19.0093 18.1732 19.4275C18.327 19.8458 18.569 20.2267 18.8831 20.5451C19.1972 20.8635 19.5762 21.1119 19.9948 21.2739C20.4134 21.4359 20.862 21.5077 21.3108 21.4846C21.967 21.4935 22.6175 21.3622 23.218 21.0998L23.0131 20.2044L22.999 20.2253Z" fill="#006A8E"/>
<path d="M25.8244 11.6973H24.6165V21.3657H25.8244V18.8891L26.446 18.1895L28.7275 21.3447H30.1968L27.2654 17.4899L29.8436 14.7825H28.4309L26.4672 17.0562C26.2694 17.287 26.0505 17.5739 25.888 17.8048V11.6973H25.8244Z" fill="#006A8E"/>
<path d="M35.6004 20.2254C35.1348 20.4355 34.6287 20.5429 34.1171 20.5402C33.7949 20.5474 33.4749 20.4871 33.1779 20.3634C32.8809 20.2396 32.6136 20.0551 32.3936 19.822C32.1736 19.5889 32.0057 19.3124 31.901 19.0105C31.7963 18.7087 31.7572 18.3884 31.7861 18.0706C31.7572 17.75 31.7969 17.427 31.9027 17.1226C32.0084 16.8183 32.1779 16.5394 32.3999 16.3044C32.6219 16.0693 32.8915 15.8833 33.191 15.7585C33.4906 15.6337 33.8133 15.5728 34.1382 15.58C34.6274 15.5676 35.1122 15.6733 35.551 15.8878L35.8264 14.9784C35.3005 14.7352 34.7257 14.6132 34.1453 14.6216C33.673 14.5968 33.2006 14.67 32.7585 14.8365C32.3164 15.003 31.9142 15.2591 31.5778 15.5883C31.2414 15.9176 30.978 16.3128 30.8047 16.7487C30.6313 17.1846 30.5518 17.6515 30.5711 18.1196C30.534 18.5663 30.5941 19.0158 30.7474 19.4376C30.9006 19.8594 31.1434 20.2438 31.4594 20.5647C31.7754 20.8857 32.1573 21.1357 32.5792 21.298C33.0011 21.4604 33.4533 21.5311 33.9051 21.5056C34.5637 21.5144 35.2164 21.3832 35.8194 21.1208L35.6145 20.2254H35.6004Z" fill="#006A8E"/>
<path d="M37.2109 21.3657H38.4258V17.392C38.4154 17.1976 38.4417 17.0031 38.5035 16.8183C38.6151 16.4763 38.8316 16.1773 39.1227 15.9629C39.4139 15.7485 39.7654 15.6293 40.1282 15.622C41.2725 15.622 41.668 16.5035 41.668 17.5669V21.3657H42.8829V17.441C42.8829 15.1673 41.4702 14.6426 40.552 14.6426C40.116 14.6422 39.6883 14.7608 39.3158 14.9854C38.9514 15.1783 38.6519 15.4725 38.4541 15.8319V11.6973H37.2109V21.3657Z" fill="#006A8E"/>
<path d="M49.5298 17.322C49.5298 15.9998 49.0353 14.6216 46.9869 14.6216C46.2161 14.6154 45.4576 14.8135 44.7901 15.1953L45.0656 15.9998C45.5868 15.6722 46.1931 15.5021 46.8103 15.5101C47.0172 15.4857 47.227 15.5086 47.4236 15.5771C47.6202 15.6455 47.7983 15.7577 47.9443 15.905C48.0902 16.0522 48.2002 16.2307 48.2656 16.4266C48.3311 16.6226 48.3504 16.8307 48.3219 17.0352V17.1751C45.7508 17.1751 44.3169 18.0286 44.3169 19.6237C44.3152 19.8839 44.3679 20.1417 44.4716 20.3808C44.5753 20.6199 44.7278 20.8353 44.9194 21.0133C45.1111 21.1913 45.3378 21.3281 45.5854 21.4153C45.833 21.5024 46.0961 21.5379 46.3582 21.5196C46.7516 21.529 47.1416 21.445 47.4955 21.2746C47.8494 21.1042 48.157 20.8524 48.3925 20.5402H48.4349L48.5409 21.3657H49.6287C49.5565 20.8418 49.5235 20.3133 49.5298 19.7846V17.322ZM48.3502 19.148C48.3522 19.2761 48.3332 19.4037 48.2936 19.5258C48.174 19.8583 47.9509 20.1445 47.6563 20.3432C47.3618 20.5419 47.0111 20.6427 46.6549 20.6311C46.5021 20.642 46.3488 20.6198 46.2056 20.5659C46.0625 20.512 45.9329 20.4279 45.8259 20.3193C45.719 20.2107 45.6373 20.0803 45.5865 19.9372C45.5357 19.7941 45.517 19.6418 45.5318 19.4908C45.5318 18.2105 47.0293 17.9727 48.3572 18.0006L48.3502 19.148Z" fill="#006A8E"/>
<path d="M52.6872 21.3657V14.7755H51.4793V21.3657H52.6872ZM52.0727 13.6701C52.221 13.6701 52.3661 13.6264 52.4894 13.5446C52.6126 13.4628 52.7086 13.3466 52.7651 13.2107C52.8215 13.0748 52.8359 12.9253 52.8064 12.7813C52.777 12.6372 52.705 12.5051 52.5995 12.4017C52.4941 12.2983 52.3601 12.2282 52.2144 12.2004C52.0686 12.1726 51.9179 12.1883 51.7812 12.2455C51.6445 12.3027 51.5281 12.3988 51.4467 12.5217C51.3652 12.6445 51.3225 12.7886 51.3239 12.9356C51.3188 13.034 51.3346 13.1323 51.3705 13.2243C51.4064 13.3162 51.4615 13.3995 51.5322 13.4689C51.6029 13.5382 51.6876 13.592 51.7807 13.6267C51.8739 13.6614 51.9733 13.6762 52.0727 13.6701Z" fill="#006A8E"/>
<path d="M54.7003 21.3657H55.9152V17.392C55.9038 16.9323 56.0764 16.4868 56.3953 16.1526C56.7142 15.8184 57.1535 15.6226 57.6176 15.608C58.7619 15.608 59.1574 16.5035 59.1574 17.5669V21.3657H60.3653V17.434C60.3653 15.1673 58.9526 14.6356 58.0131 14.6356C57.5679 14.6217 57.1273 14.7276 56.738 14.9419C56.3487 15.1563 56.0253 15.4711 55.8022 15.8529L55.7316 14.7755H54.6438C54.6862 15.3212 54.7003 15.8669 54.7003 16.5595V21.3657Z" fill="#006A8E"/>
<path d="M0.310797 32.8811H5.48133V31.8527H1.52573V23.6674H0.310797V32.8811Z" fill="#006A8E"/>
<path d="M11.4783 28.8024C11.4783 27.4802 10.9839 26.109 8.93542 26.109C8.16313 26.1014 7.40265 26.297 6.73159 26.6756L7.00707 27.4802C7.53008 27.1566 8.13511 26.9868 8.75177 26.9905C8.95868 26.9661 9.16849 26.989 9.36506 27.0574C9.56164 27.1259 9.73976 27.2381 9.88573 27.3854C10.0317 27.5326 10.1416 27.7111 10.2071 27.907C10.2726 28.103 10.2918 28.3111 10.2634 28.5156V28.6835C7.69223 28.6835 6.26539 29.537 6.26539 31.1321C6.26171 31.3923 6.31277 31.6504 6.41531 31.89C6.51785 32.1296 6.66962 32.3454 6.86097 32.5238C7.05232 32.7021 7.27906 32.839 7.52676 32.9258C7.77446 33.0126 8.03769 33.0474 8.2997 33.028C8.69328 33.0386 9.08364 32.9551 9.43775 32.7846C9.79185 32.6141 10.0993 32.3616 10.334 32.0486H10.3764L10.4894 32.8811H11.5701C11.5045 32.3566 11.4739 31.8284 11.4783 31.3V28.8024ZM10.2916 30.6284C10.2926 30.7582 10.2759 30.8877 10.2422 31.0132C10.1205 31.3437 9.89655 31.6278 9.60231 31.8251C9.30808 32.0223 8.95853 32.1225 8.60343 32.1115C8.4504 32.1223 8.29683 32.0999 8.15336 32.0461C8.00988 31.9923 7.87992 31.9083 7.77245 31.7999C7.66498 31.6914 7.58256 31.5612 7.53091 31.4181C7.47925 31.275 7.45958 31.1225 7.47326 30.9712C7.47326 29.6909 8.97074 29.46 10.2987 29.488L10.2916 30.6284Z" fill="#006A8E"/>
<path d="M13.4208 31.1461C13.4208 31.7337 13.4208 32.3983 13.3643 32.8531H14.4097L14.4803 31.7617C14.6949 32.1555 15.0179 32.4808 15.4118 32.7C15.8056 32.9192 16.2542 33.0232 16.7054 33C18.1958 33 19.7074 31.8317 19.7074 29.46C19.7074 27.4662 18.5489 26.109 16.8819 26.109C16.4388 26.0898 15.9986 26.1888 15.6073 26.3955C15.2159 26.6023 14.8877 26.9092 14.6569 27.2843V23.1567H13.4208V31.1461ZM14.6357 29.0473C14.6338 28.8773 14.6551 28.7078 14.6993 28.5436C14.7964 28.1323 15.0289 27.7648 15.3601 27.4988C15.6913 27.2328 16.1024 27.0835 16.5288 27.0744C17.8214 27.0744 18.5136 28.2078 18.5136 29.537C18.5136 31.0551 17.7719 32.0765 16.4864 32.0765C16.0703 32.0743 15.6667 31.9358 15.3384 31.6828C15.0101 31.4297 14.7754 31.0762 14.671 30.6773C14.6447 30.5343 14.6329 30.389 14.6357 30.2436V29.0473Z" fill="#006A8E"/>
<path d="M21.777 28.1938C22.0055 28.1938 22.2247 28.1038 22.3863 27.9438C22.548 27.7837 22.6387 27.5666 22.6387 27.3403C22.6387 27.1139 22.548 26.8968 22.3863 26.7367C22.2247 26.5767 22.0055 26.4868 21.777 26.4868C21.5484 26.4868 21.3292 26.5767 21.1676 26.7367C21.006 26.8968 20.9152 27.1139 20.9152 27.3403C20.9152 27.5666 21.006 27.7837 21.1676 27.9438C21.3292 28.1038 21.5484 28.1938 21.777 28.1938ZM21.777 33C21.8866 33.0039 21.9958 32.9854 22.0979 32.9457C22.1999 32.9059 22.2926 32.8458 22.3702 32.769C22.4477 32.6922 22.5084 32.6004 22.5486 32.4993C22.5887 32.3982 22.6074 32.29 22.6034 32.1815C22.6135 32.0711 22.5998 31.9598 22.5632 31.855C22.5266 31.7502 22.468 31.6544 22.3912 31.5737C22.3144 31.493 22.2212 31.4294 22.1178 31.387C22.0143 31.3447 21.903 31.3246 21.7911 31.328C21.5769 31.3472 21.3778 31.4451 21.2327 31.6024C21.0877 31.7597 21.0073 31.965 21.0073 32.178C21.0073 32.391 21.0877 32.5963 21.2327 32.7536C21.3778 32.9108 21.5769 33.0087 21.7911 33.028L21.777 33Z" fill="#006A8E"/>
<path d="M24.115 23.6674V29.0753C24.115 31.9366 25.5277 33 27.442 33C29.3562 33 30.9738 31.8527 30.9738 29.0333V23.6674H29.7376V29.1172C29.7376 31.1321 28.8476 32.0346 27.4844 32.0346C26.2482 32.0346 25.3229 31.1601 25.3229 29.1172V23.6674H24.115Z" fill="#006A8E"/>
<path d="M41.0535 32.8811H42.2331L41.6751 23.6674H40.1282L38.4823 28.1098C38.0656 29.2642 37.776 30.2856 37.4934 31.216C37.2462 30.2646 36.9425 29.2432 36.554 28.1098L34.9717 23.6674H33.4178L32.775 32.8811H33.9051L34.1524 28.9423C34.2371 27.5431 34.3078 26.025 34.336 24.8847C34.5997 25.9667 34.9529 27.156 35.3956 28.4526L36.9072 32.8251H37.8113L39.4501 28.3687C39.9162 27.1164 40.2906 25.9411 40.6155 24.8707C40.6155 25.997 40.7003 27.5641 40.7709 28.8304L41.0535 32.8811Z" fill="#006A8E"/>
<path d="M65.2109 11.8022C65.8046 11.8022 66.385 11.9766 66.8787 12.3033C67.3724 12.63 67.7572 13.0944 67.9844 13.6377C68.2116 14.181 68.2711 14.7788 68.1552 15.3555C68.0394 15.9323 67.7535 16.4621 67.3336 16.8779C66.9138 17.2937 66.3789 17.5769 65.7966 17.6916C65.2142 17.8064 64.6106 17.7475 64.0621 17.5224C63.5135 17.2974 63.0447 16.9163 62.7148 16.4274C62.3849 15.9384 62.2089 15.3635 62.2089 14.7755C62.2089 13.9869 62.5252 13.2307 63.0881 12.6731C63.6511 12.1155 64.4147 11.8022 65.2109 11.8022Z" stroke="#006285" stroke-width="0.9"/>
<path d="M65.1403 14.4187C65.2837 14.431 65.4268 14.3912 65.5429 14.3068C65.6312 14.2113 65.6803 14.0865 65.6803 13.957C65.6803 13.8274 65.6312 13.7026 65.5429 13.6072C65.4256 13.5257 65.2828 13.4885 65.1403 13.5022H64.7588V14.3977H65.1403M64.7588 15.0134V16.3216H63.8618V12.8796H65.2745C65.6271 12.8525 65.9796 12.9331 66.2846 13.1104C66.3917 13.1921 66.4768 13.2986 66.5322 13.4207C66.5877 13.5428 66.6118 13.6765 66.6024 13.81C66.6174 14.0179 66.5532 14.2237 66.4224 14.3869C66.2916 14.5501 66.1038 14.6588 65.8961 14.6915C66.023 14.725 66.1379 14.7928 66.2281 14.8874C66.351 15.0196 66.4512 15.1709 66.5247 15.3352L67.0192 16.3146H66.0585L65.6276 15.4541C65.5716 15.3156 65.4818 15.193 65.3663 15.0973C65.2615 15.0301 65.1377 14.9982 65.0131 15.0064H64.7588" fill="#006285"/>
</g>
<defs>
<clipPath id="clip0_1_101">
<rect width="70" height="33" fill="white"/>
</clipPath>
</defs>
</svg>
