<svg xmlns="http://www.w3.org/2000/svg" viewBox="0 0 99.1 47.17"><defs><style>.cls-1{fill:#f8f8f8;}.cls-2{fill:#006a8e;}.cls-3{fill:none;stroke:#006285;stroke-width:0.9px;}.cls-4{fill:#006285;}</style></defs><title>Asset 104</title><g id="Layer_2" data-name="Layer 2"><g id="Layer_1-2" data-name="Layer 1"><path class="cls-1" d="M0,.58A11.27,11.27,0,0,1,2.07.4,3.61,3.61,0,0,1,4.47,1,1.83,1.83,0,0,1,5.2,2.59,2.08,2.08,0,0,1,3.72,4.51v0A2.26,2.26,0,0,1,5.53,6.73a2.34,2.34,0,0,1-.75,1.76,4.4,4.4,0,0,1-3,.82A11.73,11.73,0,0,1,0,9.2ZM1.13,4.17h1c1.19,0,1.9-.62,1.9-1.47,0-1-.78-1.43-1.93-1.43a4.71,4.71,0,0,0-1,.08Zm0,4.2a6,6,0,0,0,1,.05c1.17,0,2.25-.42,2.25-1.7S3.3,5,2.07,5H1.13Z"/><path class="cls-1" d="M7,4.9c0-.74,0-1.38,0-2H8L8,4.17h.05A1.88,1.88,0,0,1,9.79,2.8a1.51,1.51,0,0,1,.32,0V3.91a2,2,0,0,0-.39,0A1.62,1.62,0,0,0,8.19,5.34a2.92,2.92,0,0,0,0,.54V9.23H7Z"/><path class="cls-1" d="M16.82,6a3.07,3.07,0,0,1-3.13,3.34,3,3,0,0,1-3-3.23A3.07,3.07,0,0,1,13.79,2.8,3,3,0,0,1,16.82,6Zm-5,.07c0,1.38.79,2.42,1.91,2.42s1.91-1,1.91-2.45c0-1.06-.53-2.42-1.88-2.42S11.83,4.9,11.83,6.1Z"/><path class="cls-1" d="M23.53,7.51c0,.65,0,1.23,0,1.72h-1l-.07-1h0A2.37,2.37,0,0,1,20.4,9.37c-1,0-2.17-.54-2.17-2.75V2.94h1.14V6.42c0,1.2.36,2,1.4,2a1.65,1.65,0,0,0,1.51-1,1.5,1.5,0,0,0,.11-.58V2.94h1.14Z"/><path class="cls-1" d="M30.85,2.94c0,.45-.05,1-.05,1.73V8.32a3.61,3.61,0,0,1-.9,2.87,3.31,3.31,0,0,1-2.29.76,4,4,0,0,1-2.09-.52l.28-.87a3.58,3.58,0,0,0,1.85.49c1.17,0,2-.61,2-2.2v-.7h0a2.22,2.22,0,0,1-2,1A2.81,2.81,0,0,1,25,6.14C25,4,26.36,2.8,27.81,2.8a2.09,2.09,0,0,1,2,1.09h0l.05-1ZM29.67,5.42a1.72,1.72,0,0,0-.07-.52A1.66,1.66,0,0,0,28,3.69c-1.09,0-1.87.93-1.87,2.38,0,1.24.62,2.26,1.86,2.26a1.66,1.66,0,0,0,1.58-1.17,1.81,1.81,0,0,0,.1-.61Z"/><path class="cls-1" d="M32.69,0h1.15V3.93h0a2.2,2.2,0,0,1,.82-.81,2.41,2.41,0,0,1,1.17-.32c.85,0,2.2.52,2.2,2.69V9.23H36.91V5.62c0-1-.38-1.88-1.46-1.88a1.63,1.63,0,0,0-1.53,1.15,1.26,1.26,0,0,0-.08.54v3.8H32.69Z"/><path class="cls-1" d="M41.24,1.13V2.94h1.63v.87H41.24V7.2c0,.78.22,1.22.85,1.22a2.67,2.67,0,0,0,.67-.07l.05.85a2.61,2.61,0,0,1-1,.16,1.58,1.58,0,0,1-1.23-.48,2.32,2.32,0,0,1-.44-1.64V3.81h-1V2.94h1V1.43Z"/><path class="cls-1" d="M48.29,1.13V2.94h1.64v.87H48.29V7.2c0,.78.22,1.22.86,1.22a2.52,2.52,0,0,0,.66-.07l.06.85a2.64,2.64,0,0,1-1,.16,1.58,1.58,0,0,1-1.23-.48,2.32,2.32,0,0,1-.44-1.64V3.81h-1V2.94h1V1.43Z"/><path class="cls-1" d="M56.83,6A3.07,3.07,0,0,1,53.7,9.37a3,3,0,0,1-3-3.23A3.07,3.07,0,0,1,53.81,2.8,3,3,0,0,1,56.83,6Zm-5,.07c0,1.38.8,2.42,1.91,2.42s1.92-1,1.92-2.45c0-1.06-.54-2.42-1.89-2.42S51.84,4.9,51.84,6.1Z"/><path class="cls-1" d="M61.45,2.94l1.38,3.72c.14.41.3.91.4,1.28h0c.11-.37.24-.85.4-1.31l1.25-3.69h1.21L64.4,7.42c-.82,2.16-1.38,3.27-2.16,3.94a3,3,0,0,1-1.4.74l-.29-1a2.92,2.92,0,0,0,1-.56,3.35,3.35,0,0,0,1-1.27.76.76,0,0,0,.1-.27,1,1,0,0,0-.08-.3L60.2,2.94Z"/><path class="cls-1" d="M72.72,6a3.07,3.07,0,0,1-3.13,3.34,3,3,0,0,1-3-3.23A3.07,3.07,0,0,1,69.69,2.8,3,3,0,0,1,72.72,6Zm-5,.07c0,1.38.79,2.42,1.91,2.42s1.91-1,1.91-2.45c0-1.06-.53-2.42-1.88-2.42S67.73,4.9,67.73,6.1Z"/><path class="cls-1" d="M79.43,7.51c0,.65,0,1.23,0,1.72h-1l-.07-1h0a2.38,2.38,0,0,1-2.09,1.17c-1,0-2.17-.54-2.17-2.75V2.94h1.15V6.42c0,1.2.36,2,1.4,2a1.65,1.65,0,0,0,1.51-1,1.5,1.5,0,0,0,.1-.58V2.94h1.15Z"/><path class="cls-1" d="M84,9.23c0-.43,0-1.07,0-1.62V0h1.13V4h0A2.34,2.34,0,0,1,87.38,2.8C88.94,2.8,90.05,4.1,90,6c0,2.25-1.42,3.36-2.83,3.36a2.24,2.24,0,0,1-2.1-1.18h0l0,1Zm1.18-2.52a2.7,2.7,0,0,0,.05.41A1.77,1.77,0,0,0,87,8.46c1.2,0,1.91-1,1.91-2.41,0-1.27-.65-2.34-1.87-2.34a1.82,1.82,0,0,0-1.74,1.4,2,2,0,0,0-.07.47Z"/><path class="cls-1" d="M91.8,2.94l1.38,3.72c.14.41.3.91.4,1.28h0c.12-.37.25-.85.4-1.31l1.25-3.69h1.21L94.75,7.42c-.81,2.16-1.37,3.27-2.15,3.94a3,3,0,0,1-1.41.74l-.28-1a3,3,0,0,0,1-.56,3.45,3.45,0,0,0,1-1.27A.92.92,0,0,0,93,9a1,1,0,0,0-.08-.3l-2.32-5.8Z"/><path class="cls-1" d="M97.55,4a.77.77,0,0,1,.78-.82A.78.78,0,0,1,99.1,4a.78.78,0,1,1-1.55,0Zm0,4.59a.77.77,0,0,1,.78-.82.78.78,0,0,1,.77.82.78.78,0,1,1-1.55,0Z"/><g id="layer1"><g id="text4393"><path id="path4336" class="cls-2" d="M.33,30.5A19.35,19.35,0,0,0,3,30.66c2.14,0,3.62-.39,4.52-1.23A3.48,3.48,0,0,0,8.61,26.8,3.35,3.35,0,0,0,5.9,23.53v-.06a3.1,3.1,0,0,0,2.22-2.88A2.75,2.75,0,0,0,7,18.28a5.29,5.29,0,0,0-3.58-1,15.33,15.33,0,0,0-3.1.29V30.5ZM2,18.74a7.29,7.29,0,0,1,1.5-.11c1.71,0,2.86.62,2.86,2.14C6.39,22,5.34,23,3.57,23H2Zm0,5.51h1.4c1.85,0,3.39.76,3.39,2.53S5.2,29.34,3.45,29.34A8.9,8.9,0,0,1,2,29.26Z"/><path id="path4338" class="cls-2" d="M10.85,30.54h1.71V16.72H10.85Z"/><path id="path4340" class="cls-2" d="M19.3,30.76c2.24,0,4.68-1.52,4.68-5,0-2.86-1.83-4.83-4.54-4.83s-4.67,1.85-4.67,5a4.49,4.49,0,0,0,4.52,4.85Zm0-1.29c-1.65,0-2.82-1.56-2.82-3.62,0-1.79.88-3.66,2.88-3.66s2.83,2,2.83,3.6c0,2.14-1.23,3.68-2.87,3.68Z"/><path id="path4342" class="cls-2" d="M32.56,28.91a4.94,4.94,0,0,1-2.1.45,3.24,3.24,0,0,1-3.27-3.53,3.27,3.27,0,0,1,3.33-3.56,4.25,4.25,0,0,1,2,.44l.39-1.3a5.39,5.39,0,0,0-2.37-.51,4.81,4.81,0,0,0-5.07,5,4.48,4.48,0,0,0,4.7,4.81,6.47,6.47,0,0,0,2.7-.55l-.29-1.28Z"/><path id="path4344" class="cls-2" d="M36.56,16.72H34.85V30.54h1.71V27l.88-1,3.23,4.51h2.08L38.6,25l3.65-3.87h-2l-2.78,3.25c-.28.33-.59.74-.82,1.07h0V16.72Z"/><path id="path4346" class="cls-2" d="M50.4,28.91a5,5,0,0,1-2.1.45A3.24,3.24,0,0,1,45,25.83a3.27,3.27,0,0,1,3.33-3.56,4.27,4.27,0,0,1,2,.44l.39-1.3a5.44,5.44,0,0,0-2.38-.51,4.81,4.81,0,0,0-5.06,5A4.48,4.48,0,0,0,48,30.74a6.52,6.52,0,0,0,2.71-.55l-.29-1.28Z"/><path id="path4348" class="cls-2" d="M52.68,30.54H54.4V24.86a2.23,2.23,0,0,1,.11-.82,2.47,2.47,0,0,1,2.3-1.71c1.62,0,2.18,1.26,2.18,2.78v5.43h1.72V24.93c0-3.25-2-4-3.3-4a3.36,3.36,0,0,0-1.75.49,3,3,0,0,0-1.22,1.21h0V16.72H52.68V30.54Z"/><path id="path4350" class="cls-2" d="M70.12,24.76c0-1.89-.7-3.86-3.6-3.86a6.12,6.12,0,0,0-3.11.82l.39,1.15a4.5,4.5,0,0,1,2.47-.7,1.93,1.93,0,0,1,2.14,2.18v.2c-3.64,0-5.67,1.22-5.67,3.5a2.7,2.7,0,0,0,2.89,2.71,3.49,3.49,0,0,0,2.88-1.4h.06l.15,1.18h1.54a15.38,15.38,0,0,1-.14-2.26V24.76Zm-1.67,2.61a1.68,1.68,0,0,1-.08.54,2.38,2.38,0,0,1-2.32,1.58,1.49,1.49,0,0,1-1.59-1.63c0-1.83,2.12-2.17,4-2.13Z"/><path id="path4352" class="cls-2" d="M74.59,30.54V21.12H72.88v9.42Zm-.87-11a1.06,1.06,0,1,0-1.06-1.05,1,1,0,0,0,1.06,1.05Z"/><path id="path4354" class="cls-2" d="M77.44,30.54h1.72V24.86a2.49,2.49,0,0,1,2.41-2.55c1.62,0,2.18,1.28,2.18,2.8v5.43h1.71V24.92c0-3.24-2-4-3.33-4A3.49,3.49,0,0,0,79,22.66h0l-.1-1.54H77.36c.06.78.08,1.56.08,2.55v6.87Z"/><path id="path4356" class="cls-2" d="M.44,47H7.76V45.53H2.16V33.83H.44Z"/><path id="path4358" class="cls-2" d="M16.25,41.17c0-1.89-.7-3.85-3.6-3.85a6.18,6.18,0,0,0-3.12.81l.39,1.15a4.61,4.61,0,0,1,2.47-.7,1.93,1.93,0,0,1,2.14,2.18V41c-3.64,0-5.66,1.22-5.66,3.5a2.68,2.68,0,0,0,2.88,2.71,3.47,3.47,0,0,0,2.88-1.4h.06L14.85,47h1.53a17.22,17.22,0,0,1-.13-2.26Zm-1.68,2.61a2.08,2.08,0,0,1-.07.55,2.39,2.39,0,0,1-2.32,1.57,1.5,1.5,0,0,1-1.6-1.63c0-1.83,2.12-2.16,4-2.12Z"/><path id="path4360" class="cls-2" d="M19,44.52c0,.84,0,1.79-.08,2.44H20.4l.1-1.56h0a3.38,3.38,0,0,0,3.15,1.77c2.11,0,4.25-1.67,4.25-5.06,0-2.85-1.64-4.79-4-4.79A3.51,3.51,0,0,0,20.75,39h0v-5.9H19Zm1.72-3a2.68,2.68,0,0,1,.09-.72,2.72,2.72,0,0,1,2.59-2.1c1.83,0,2.81,1.62,2.81,3.52,0,2.17-1.05,3.63-2.87,3.63a2.67,2.67,0,0,1-2.57-2,3.12,3.12,0,0,1-.05-.62Z"/><path id="path4362" class="cls-2" d="M30.83,40.3a1.22,1.22,0,0,0,0-2.44,1.22,1.22,0,0,0,0,2.44Zm0,6.87A1.13,1.13,0,0,0,32,46a1.12,1.12,0,0,0-1.15-1.22,1.22,1.22,0,0,0,0,2.43Z"/><path id="path4364" class="cls-2" d="M34.14,33.83v7.73c0,4.09,2,5.61,4.71,5.61s5-1.64,5-5.67V33.83H42.1v7.79c0,2.88-1.26,4.17-3.19,4.17-1.75,0-3.06-1.25-3.06-4.17V33.83Z"/><path id="path4366" class="cls-2" d="M58.12,47h1.67L59,33.83H56.81l-2.33,6.35c-.59,1.65-1,3.11-1.4,4.44h0c-.35-1.36-.78-2.82-1.33-4.44l-2.24-6.35H47.31L46.4,47H48l.35-5.63c.12-2,.22-4.17.26-5.8h0q.56,2.32,1.5,5.1l2.14,6.25h1.28l2.32-6.37c.66-1.79,1.19-3.47,1.65-5h0c0,1.61.12,3.85.22,5.66L58.12,47Z"/></g></g><path id="circle4189" class="cls-3" d="M92.32,16.87a4.25,4.25,0,1,1-4.25,4.25A4.25,4.25,0,0,1,92.32,16.87Z"/><path id="path4191" class="cls-4" d="M92.22,20.61a.84.84,0,0,0,.57-.16.74.74,0,0,0,0-1,.85.85,0,0,0-.57-.15h-.54v1.28h.54m-.54.88v1.87H90.41V18.41h2a2.45,2.45,0,0,1,1.43.33,1.16,1.16,0,0,1,.45,1A1.19,1.19,0,0,1,93.29,21a1,1,0,0,1,.47.28,2.35,2.35,0,0,1,.42.64l.7,1.4H93.52l-.61-1.23a1.29,1.29,0,0,0-.37-.51.82.82,0,0,0-.5-.13h-.36"/></g></g></svg>