<svg xmlns="http://www.w3.org/2000/svg" xmlns:xlink="http://www.w3.org/1999/xlink" viewBox="0 0 368.3 312.64"><defs><style>.cls-1{fill:#ccc;}.cls-2{opacity:0.19;fill:url(#linear-gradient);}.cls-2,.cls-5{isolation:isolate;}.cls-3,.cls-4{fill:#38b87e;}.cls-3{opacity:0.1;}.cls-5{opacity:0.47;fill:url(#linear-gradient-2);}.cls-6{fill:#22bd94;}.cls-7{fill:url(#linear-gradient-3);}.cls-8{fill:url(#linear-gradient-4);}.cls-9{fill:url(#linear-gradient-5);}.cls-10{fill:url(#linear-gradient-6);}.cls-11{fill:url(#linear-gradient-7);}.cls-12{fill:url(#linear-gradient-8);}.cls-13{fill:url(#linear-gradient-9);}.cls-14{fill:url(#linear-gradient-10);}.cls-15{fill:url(#linear-gradient-11);}.cls-16{fill:url(#linear-gradient-12);}</style><linearGradient id="linear-gradient" x1="81.69" y1="8927.68" x2="147.92" y2="8927.68" gradientTransform="matrix(1, 0, 0, -1, -66.12, 9232.71)" gradientUnits="userSpaceOnUse"><stop offset="0" stop-color="#183866"/><stop offset="1" stop-color="#1a7fc1"/></linearGradient><linearGradient id="linear-gradient-2" x1="214.92" y1="9082.38" x2="-198.79" y2="9063.26" gradientTransform="matrix(1, 0, 0, -1, -66.12, 9232.71)" gradientUnits="userSpaceOnUse"><stop offset="0" stop-opacity="0"/><stop offset="0.97"/><stop offset="0.97" stop-color="#0c0c11"/><stop offset="0.98" stop-color="#312f43"/><stop offset="0.99" stop-color="#3f3d56"/></linearGradient><linearGradient id="linear-gradient-3" x1="59.65" y1="9022.11" x2="247.05" y2="9051.3" xlink:href="#linear-gradient-2"/><linearGradient id="linear-gradient-4" x1="77.82" y1="9030.34" x2="210.21" y2="9038.31" gradientTransform="matrix(1, 0, 0, -1, -66.12, 9232.71)" gradientUnits="userSpaceOnUse"><stop offset="0" stop-opacity="0"/><stop offset="0.29" stop-opacity="0.29"/><stop offset="0.97"/><stop offset="0.97" stop-color="#0c0c11"/><stop offset="0.98" stop-color="#312f43"/><stop offset="0.99" stop-color="#3f3d56"/></linearGradient><linearGradient id="linear-gradient-5" x1="182.14" y1="8949.89" x2="111.53" y2="9047.66" gradientTransform="matrix(1, 0, 0, -1, -66.12, 9232.71)" gradientUnits="userSpaceOnUse"><stop offset="0" stop-opacity="0"/><stop offset="0.84" stop-opacity="0.66"/><stop offset="0.97"/></linearGradient><linearGradient id="linear-gradient-6" x1="154.03" y1="8961.73" x2="68.69" y2="8954.98" gradientTransform="matrix(1, 0, 0, -1, -66.12, 9232.71)" gradientUnits="userSpaceOnUse"><stop offset="0" stop-opacity="0"/><stop offset="0.87" stop-opacity="0.66"/><stop offset="1"/></linearGradient><linearGradient id="linear-gradient-7" x1="257.04" y1="9245.32" x2="261.56" y2="8864.92" gradientTransform="matrix(1, 0, 0, -1, -66.12, 9232.71)" gradientUnits="userSpaceOnUse"><stop offset="0" stop-opacity="0"/><stop offset="0.5" stop-opacity="0.38"/><stop offset="0.97"/><stop offset="0.97" stop-color="#0c0c11"/><stop offset="0.98" stop-color="#312f43"/><stop offset="0.99" stop-color="#3f3d56"/></linearGradient><linearGradient id="linear-gradient-8" x1="48.37" y1="8861.3" x2="48.52" y2="8843.48" gradientTransform="matrix(1, 0, 0, -1, 0, 8896.73)" xlink:href="#linear-gradient-7"/><linearGradient id="linear-gradient-9" x1="59.66" y1="8861.4" x2="59.81" y2="8843.58" gradientTransform="matrix(1, 0, 0, -1, 0, 8896.73)" xlink:href="#linear-gradient-7"/><linearGradient id="linear-gradient-10" x1="70.95" y1="8861.49" x2="71.1" y2="8843.67" gradientTransform="matrix(1, 0, 0, -1, 0, 8896.73)" xlink:href="#linear-gradient-7"/><linearGradient id="linear-gradient-11" x1="272.96" y1="9194.56" x2="241.83" y2="8996.92" gradientTransform="matrix(1, 0, 0, -1, -66.12, 9232.71)" gradientUnits="userSpaceOnUse"><stop offset="0.01"/><stop offset="0.99" stop-opacity="0"/></linearGradient><linearGradient id="linear-gradient-12" x1="255.01" y1="9150.08" x2="254.28" y2="9103.69" xlink:href="#linear-gradient-11"/></defs><title>Asset 53</title><g id="Layer_2" data-name="Layer 2"><g id="Layer_1-2" data-name="Layer 1"><path class="cls-1" d="M195.62,192.51a7.53,7.53,0,0,0-3.76,14.05v8.36h7.51v-8.36a7.53,7.53,0,0,0-3.75-14.05Z"/><path class="cls-1" d="M195.62,156a11.49,11.49,0,0,0-11.47,11.47v12.22h22.94V167.49A11.48,11.48,0,0,0,195.62,156Z"/><path class="cls-1" d="M195.62,110.05A72.37,72.37,0,1,0,268,182.41,72.37,72.37,0,0,0,195.62,110.05Zm22.23,109.57H173.38a8.51,8.51,0,0,1-8.5-8.5V183.66a8.52,8.52,0,0,1,6.76-8.33V162.94a24,24,0,1,1,48,0v12.39a8.52,8.52,0,0,1,6.76,8.33v27.46h0A8.51,8.51,0,0,1,217.85,219.62Z"/><path class="cls-2" d="M81.62,301.09c.69,1.81-.73,3.82-2.46,4.68s-3.74.94-5.62,1.42c-2.92.76-5.49,2.47-8.31,3.52-3.88,1.45-8.1,1.6-12.24,1.75-12.49.43-25.82.64-36.44-6a2,2,0,0,1-.92-.92,1.67,1.67,0,0,1,.11-1.18c.88-2,3.4-2.64,5.58-3A261.7,261.7,0,0,1,52.53,298C57.94,297.82,79.57,295.63,81.62,301.09Z"/><path class="cls-3" d="M361.25,184c2.21-23.1,13.45-47.54,2-68.43-3-5.45-7.34-10.12-12.18-14.47-6.39-5.73-13.67-10.91-20-16.69C319.73,74.18,313.28,62,304.61,50.73A83.63,83.63,0,0,0,292.4,37.78c-1.79-1.51-3.61-3-5.45-4.48-15.09-11.95-32.07-22.21-51.38-28.16-27.38-8.42-59.93-7.07-83,8.31C144.19,19,137.45,26,131,33.31,125.7,39.18,120.63,45.22,115,50.73A82,82,0,0,1,98.24,63.85c-9,5.19-19.43,8.24-29,12.6A99.87,99.87,0,0,0,51.77,86.63,97.52,97.52,0,0,0,32.3,105.39c-12.12,15.44-19,34.07-18.51,52.82.07,2.94.31,5.89.4,8.83a42.51,42.51,0,0,1-.55,9.69c-1,5.23-3.51,10.15-6.08,15C4.05,198.4.38,205,0,212.18c-.61,12.4,8.57,23,18.76,32.11,1.7,1.52,3.44,3,5.15,4.43,2.73,2.29,5.54,4.58,8.37,6.85l.54.43c1.52,1.21,3,2.41,4.59,3.6,3.87,3,7.83,5.89,11.9,8.66,1.82,1.23,3.63,2.43,5.45,3.59q6.36,4.08,13.09,7.5a109.23,109.23,0,0,0,35.64,11.38c34.87,4.36,69.56-11.15,104.73-9.1,23.08,1.34,44.6,10.15,67,15.28s48.33,5.94,66.36-6.73c16.62-11.66,22.07-31.79,22.12-50.42S359.46,202.56,361.25,184Z"/><path class="cls-4" d="M335.94,33.31H47.39a15.06,15.06,0,0,0-15.08,15h0V256H351V48.37a15.06,15.06,0,0,0-15.06-15.06Z"/><path class="cls-5" d="M90.06,222.45c-.55,5.69-5.65,9.87-10.91,11.66-2.73.92-5.63,1.44-8,3.13s-3.87,5.11-2.4,7.64a8.92,8.92,0,0,1,8.33,5.61c-3.37,5.12-9.33,7.92-15.28,8.73s-12-.14-17.89-1.12c-2.06-.34-4.27-.76-5.76-2.27s-1.89-3.72-2.27-5.81c0-.3-.1-.59-.15-.89H32.18V50.73H51.71v94.36c0,7.7-.35,15.46-.23,23.13.12,7.29,5,11,9.6,16.3,1.43,1.64,2.9,3.37,3.32,5.53s-.36,4.7.24,6.94c1,3.9,6,5.37,9.72,4.27s6.78-3.94,10-6.2a36.67,36.67,0,0,1,19-6.48c-2.28,9.69-13.52,15.82-13.79,25.8C89.52,217.09,90.32,219.75,90.06,222.45Z"/><path class="cls-6" d="M18.43,231a62.38,62.38,0,0,1-9.32-26.13c-.6-5.66-.35-11.62-2.9-16.71-1.52-3-4-5.61-4.75-8.91C0,173.08,5,167.45,9.53,163.05a2,2,0,0,1,1.05-.68c.71-.13,1.35.46,1.78,1,2.6,3.51,2.81,8.18,3.47,12.48.72,4.66,2.24,9.48,5.79,12.6s9,4.48,10.78,8.88c1.55,3.91-.68,8.53.72,12.51s6.2,6.36,6.92,10.55c.48,2.78-1,5.54-1,8.36,0,2.15,1,4.17,1.48,6.26,1.12,4.48,0,17.61-6.82,13.77C27.56,245.36,22.05,236.86,18.43,231Z"/><path class="cls-7" d="M18.43,231a62.38,62.38,0,0,1-9.32-26.13c-.6-5.66-.35-11.62-2.9-16.71-1.52-3-4-5.61-4.75-8.91C0,173.08,5,167.45,9.53,163.05a2,2,0,0,1,1.05-.68c.71-.13,1.35.46,1.78,1,2.6,3.51,2.81,8.18,3.47,12.48.72,4.66,2.24,9.48,5.79,12.6s9,4.48,10.78,8.88c1.55,3.91-.68,8.53.72,12.51s6.2,6.36,6.92,10.55c.48,2.78-1,5.54-1,8.36,0,2.15,1,4.17,1.48,6.26,1.12,4.48,0,17.61-6.82,13.77C27.56,245.36,22.05,236.86,18.43,231Z"/><path class="cls-6" d="M30.81,222a62.44,62.44,0,0,1,.54-27.74c1.45-5.51,3.82-11,3.21-16.65-.35-3.37-1.75-6.67-1.29-10,.86-6.27,7.47-9.82,13.28-12.31a2.23,2.23,0,0,1,1.22-.26c.71.13,1.09.91,1.29,1.61,1.19,4.2-.26,8.62-1.16,12.9-1,4.61-1.26,9.66,1,13.83s6.85,7.38,6.94,12.11c.07,4.22-3.65,7.75-3.75,12s3.55,8.14,2.73,12.32c-.54,2.77-2.91,4.82-3.87,7.47-.73,2-.58,4.25-.82,6.39-.55,4.59-6.21,16.48-11.25,10.47C34.3,238.63,32.12,228.73,30.81,222Z"/><path class="cls-8" d="M30.81,222a62.44,62.44,0,0,1,.54-27.74c1.45-5.51,3.82-11,3.21-16.65-.35-3.37-1.75-6.67-1.29-10,.86-6.27,7.47-9.82,13.28-12.31a2.23,2.23,0,0,1,1.22-.26c.71.13,1.09.91,1.29,1.61,1.19,4.2-.26,8.62-1.16,12.9-1,4.61-1.26,9.66,1,13.83s6.85,7.38,6.94,12.11c.07,4.22-3.65,7.75-3.75,12s3.55,8.14,2.73,12.32c-.54,2.77-2.91,4.82-3.87,7.47-.73,2-.58,4.25-.82,6.39-.55,4.59-6.21,16.48-11.25,10.47C34.3,238.63,32.12,228.73,30.81,222Z"/><path class="cls-6" d="M43.39,223.51A62.75,62.75,0,0,1,62.06,203c4.71-3.19,10.09-5.77,13.38-10.42,2-2.76,3.09-6.16,5.63-8.38,4.78-4.15,12.08-2.45,18.1-.5a1.59,1.59,0,0,1,1,2.66c-1.87,4-5.88,6.32-9.37,8.94-3.78,2.82-7.32,6.44-8.4,11S82.7,216.4,79.64,220c-2.72,3.22-7.85,3.42-10.69,6.54s-2.7,8.46-6.06,11.07c-2.23,1.73-5.36,1.71-7.83,3.08-1.88,1-3.23,2.8-4.83,4.25-3.43,3.1-15.53,8.31-15.36.46C35,238.36,39.92,229.45,43.39,223.51Z"/><path class="cls-9" d="M43.39,223.51A62.75,62.75,0,0,1,62.06,203c4.71-3.19,10.09-5.77,13.38-10.42,2-2.76,3.09-6.16,5.63-8.38,4.78-4.15,12.08-2.45,18.1-.5a1.59,1.59,0,0,1,1,2.66c-1.87,4-5.88,6.32-9.37,8.94-3.78,2.82-7.32,6.44-8.4,11S82.7,216.4,79.64,220c-2.72,3.22-7.85,3.42-10.69,6.54s-2.7,8.46-6.06,11.07c-2.23,1.73-5.36,1.71-7.83,3.08-1.88,1-3.23,2.8-4.83,4.25-3.43,3.1-15.53,8.31-15.36.46C35,238.36,39.92,229.45,43.39,223.51Z"/><path class="cls-6" d="M72.67,251.87,71.94,256l-.63,3.59-1.49,8.66-.59,3.6-1.51,8.66-.63,3.59-3.74,21.54H24.44L20.66,284.1,20,280.51l-1.49-8.66-.64-3.6-1.54-8.66L15.75,256,15,251.87a7.14,7.14,0,0,1,5.8-8.27h0a7.33,7.33,0,0,1,1.24-.11H65.62a7.14,7.14,0,0,1,7.15,7.12h0a8.93,8.93,0,0,1-.11,1.26Z"/><path class="cls-10" d="M72.67,251.87,71.94,256l-.63,3.59-1.49,8.66-.59,3.6-1.51,8.66-.63,3.59-3.74,21.54H24.44L20.66,284.1,20,280.51l-1.49-8.66-.64-3.6-1.54-8.66L15.75,256,15,251.87a7.14,7.14,0,0,1,5.8-8.27h0a7.33,7.33,0,0,1,1.24-.11H65.62a7.14,7.14,0,0,1,7.15,7.12h0a8.93,8.93,0,0,1-.11,1.26Z"/><path class="cls-11" d="M351,48.37v2.36H32.31V48.38a15.05,15.05,0,0,1,15-15.07H335.92a15.06,15.06,0,0,1,15.06,15Z"/><circle class="cls-12" cx="48.42" cy="41.37" r="3.37"/><circle class="cls-13" cx="59.71" cy="41.37" r="3.37"/><circle class="cls-14" cx="71" cy="41.37" r="3.37"/><path class="cls-15" d="M227.56,123.82v62.31a8,8,0,0,1-8,8h-62.3a8,8,0,0,1-8-8V123.82a8,8,0,0,1,8-8h62.3a8,8,0,0,1,8,8Z"/><path class="cls-6" d="M194.81,147.55a6.39,6.39,0,0,1-3.19,5.72,1.65,1.65,0,0,0-.82,1.45v13.63a1.9,1.9,0,0,1-1.9,1.9H188a1.9,1.9,0,0,1-1.9-1.9h0V154.72a1.67,1.67,0,0,0-.82-1.45,6.37,6.37,0,1,1,9.55-5.7Z"/><polygon class="cls-6" points="71.95 256 71.33 259.59 16.38 259.59 15.75 256 71.95 256"/><polygon class="cls-6" points="69.81 268.25 69.19 271.85 18.52 271.85 17.89 268.25 69.81 268.25"/><polygon class="cls-6" points="67.69 280.51 67.06 284.1 20.66 284.1 20.04 280.51 67.69 280.51"/><path class="cls-16" d="M209.53,115.87h-6.77v-9.09a14.32,14.32,0,1,0-28.63.07v9h-6.78V106.6a21.1,21.1,0,0,1,42.18.12Z"/></g></g></svg>